<svg width="97" height="17" viewBox="0 0 97 17" fill="none" xmlns="http://www.w3.org/2000/svg">
<path d="M0.44 16V1.1H6.72C7.70667 1.1 8.54667 1.27333 9.24 1.62C9.94667 1.95333 10.4867 2.43333 10.86 3.06C11.2467 3.67333 11.44 4.42 11.44 5.3C11.44 5.98 11.2533 6.62 10.88 7.22C10.52 7.80667 9.94 8.29333 9.14 8.68V7.42C9.87333 7.7 10.4533 8.04667 10.88 8.46C11.3067 8.87333 11.6067 9.33333 11.78 9.84C11.9533 10.3467 12.04 10.88 12.04 11.44C12.04 12.8667 11.5667 13.9867 10.62 14.8C9.68667 15.6 8.38667 16 6.72 16H0.44ZM3.16 13.6H7C7.70667 13.6 8.26667 13.4067 8.68 13.02C9.10667 12.62 9.32 12.0933 9.32 11.44C9.32 10.7867 9.10667 10.26 8.68 9.86C8.26667 9.46 7.70667 9.26 7 9.26H3.16V13.6ZM3.16 6.88H6.86C7.42 6.88 7.86667 6.72 8.2 6.4C8.53333 6.06667 8.7 5.64 8.7 5.12C8.7 4.6 8.53333 4.18667 8.2 3.88C7.86667 3.57333 7.42 3.42 6.86 3.42H3.16V6.88ZM17.9281 16.24C17.0881 16.24 16.3548 16.0533 15.7281 15.68C15.1148 15.3067 14.6415 14.7867 14.3081 14.12C13.9881 13.4533 13.8281 12.6733 13.8281 11.78V5.12H16.4481V11.56C16.4481 12.0133 16.5348 12.4133 16.7081 12.76C16.8948 13.0933 17.1548 13.36 17.4881 13.56C17.8348 13.7467 18.2215 13.84 18.6481 13.84C19.0748 13.84 19.4548 13.7467 19.7881 13.56C20.1215 13.36 20.3815 13.0867 20.5681 12.74C20.7548 12.3933 20.8481 11.98 20.8481 11.5V5.12H23.4681V16H20.9881V13.86L21.2081 14.24C20.9548 14.9067 20.5348 15.4067 19.9481 15.74C19.3748 16.0733 18.7015 16.24 17.9281 16.24ZM25.9036 16V5.12H28.5236V16H25.9036ZM25.9036 3.9V1.1H28.5236V3.9H25.9036ZM30.9427 16V0.859999H33.5627V16H30.9427ZM40.9417 16.12C39.7151 16.12 38.7617 15.7867 38.0817 15.12C37.4151 14.44 37.0817 13.4867 37.0817 12.26V7.46H35.2017V5.12H35.4017C35.9351 5.12 36.3484 4.98 36.6417 4.7C36.9351 4.42 37.0817 4.01333 37.0817 3.48V2.64H39.7017V5.12H42.2017V7.46H39.7017V12.12C39.7017 12.48 39.7617 12.7867 39.8817 13.04C40.0151 13.2933 40.2151 13.4867 40.4817 13.62C40.7617 13.7533 41.1151 13.82 41.5417 13.82C41.6351 13.82 41.7417 13.8133 41.8617 13.8C41.9951 13.7867 42.1217 13.7733 42.2417 13.76V16C42.0551 16.0267 41.8417 16.0533 41.6017 16.08C41.3617 16.1067 41.1417 16.12 40.9417 16.12ZM49.0581 16V7.46H47.1381V5.12H49.0581V4.76C49.0581 3.93333 49.2248 3.23333 49.5581 2.66C49.9048 2.07333 50.3848 1.62667 50.9981 1.32C51.6115 1.01333 52.3381 0.859999 53.1781 0.859999C53.3381 0.859999 53.5115 0.873333 53.6981 0.899999C53.8981 0.913333 54.0648 0.933333 54.1981 0.959999V3.22C54.0648 3.19333 53.9381 3.18 53.8181 3.18C53.7115 3.16667 53.6115 3.16 53.5181 3.16C52.9315 3.16 52.4781 3.29333 52.1581 3.56C51.8381 3.81333 51.6781 4.21333 51.6781 4.76V5.12H54.0981V7.46H51.6781V16H49.0581ZM60.9306 16.24C59.864 16.24 58.8906 15.9933 58.0106 15.5C57.144 15.0067 56.4506 14.3333 55.9306 13.48C55.424 12.6267 55.1706 11.6533 55.1706 10.56C55.1706 9.46667 55.424 8.49333 55.9306 7.64C56.4506 6.78667 57.144 6.11333 58.0106 5.62C58.8773 5.12667 59.8506 4.88 60.9306 4.88C61.9973 4.88 62.964 5.12667 63.8306 5.62C64.6973 6.11333 65.384 6.78667 65.8906 7.64C66.4106 8.48 66.6706 9.45333 66.6706 10.56C66.6706 11.6533 66.4106 12.6267 65.8906 13.48C65.3706 14.3333 64.6773 15.0067 63.8106 15.5C62.944 15.9933 61.984 16.24 60.9306 16.24ZM60.9306 13.84C61.5173 13.84 62.0306 13.7 62.4706 13.42C62.924 13.14 63.2773 12.7533 63.5306 12.26C63.7973 11.7533 63.9306 11.1867 63.9306 10.56C63.9306 9.92 63.7973 9.36 63.5306 8.88C63.2773 8.38667 62.924 8 62.4706 7.72C62.0306 7.42667 61.5173 7.28 60.9306 7.28C60.3306 7.28 59.804 7.42667 59.3506 7.72C58.8973 8 58.5373 8.38667 58.2706 8.88C58.0173 9.36 57.8906 9.92 57.8906 10.56C57.8906 11.1867 58.0173 11.7533 58.2706 12.26C58.5373 12.7533 58.8973 13.14 59.3506 13.42C59.804 13.7 60.3306 13.84 60.9306 13.84ZM68.6575 16V5.12H71.1175V7.54L70.9175 7.18C71.1708 6.36667 71.5642 5.8 72.0975 5.48C72.6442 5.16 73.2975 5 74.0575 5H74.6975V7.32H73.7575C73.0108 7.32 72.4108 7.55333 71.9575 8.02C71.5042 8.47333 71.2775 9.11333 71.2775 9.94V16H68.6575ZM78.6927 16L83.8327 1.1H87.3527L92.4927 16H89.5327L88.4727 12.8H82.7127L81.6327 16H78.6927ZM83.4927 10.4H87.6927L85.2127 2.98H85.9727L83.4927 10.4ZM94.1509 16V1.1H96.8709V16H94.1509Z" fill="#101619"/>
</svg>
