<svg width="27" height="32" viewBox="0 0 27 32" fill="none" xmlns="http://www.w3.org/2000/svg">
<path d="M13.1694 7.33368e-05C10.0329 -0.0104066 6.99633 1.10264 4.60959 3.13763C2.22286 5.17263 0.643756 7.99503 0.158238 11.0937C-0.327279 14.1924 0.312888 17.3626 1.96282 20.0301C3.61275 22.6975 6.16336 24.686 9.15275 25.6353C11.9873 26.5473 14.5438 26.1887 17.3731 25.6042C18.1291 27.1188 16.5937 30.4652 15.9701 31.9669C16.2143 31.3693 17.2354 30.7665 17.6952 30.3171C21.0286 27.0539 23.7618 22.7826 25.1673 18.3191C26.5339 13.9933 26.4871 9.01541 23.6734 5.26898C22.4477 3.63996 20.8616 2.31665 19.0394 1.40259C17.2171 0.488528 15.208 0.00850091 13.1694 7.33368e-05ZM10.0387 14.17C9.83315 14.17 9.63223 14.1091 9.46133 13.9949C9.29043 13.8807 9.15723 13.7184 9.07857 13.5285C8.99991 13.3386 8.97934 13.1296 9.01944 12.928C9.05954 12.7264 9.15851 12.5413 9.30385 12.3959C9.44919 12.2506 9.63436 12.1516 9.83595 12.1115C10.0375 12.0714 10.2465 12.092 10.4364 12.1706C10.6263 12.2493 10.7886 12.3825 10.9028 12.5534C11.017 12.7243 11.0779 12.9252 11.0779 13.1308C11.0779 13.4064 10.9684 13.6707 10.7735 13.8656C10.5787 14.0605 10.3143 14.17 10.0387 14.17ZM13.1694 14.17C12.9638 14.17 12.7629 14.1091 12.592 13.9949C12.4211 13.8807 12.2879 13.7184 12.2093 13.5285C12.1306 13.3386 12.11 13.1296 12.1501 12.928C12.1902 12.7264 12.2892 12.5413 12.4345 12.3959C12.5799 12.2506 12.765 12.1516 12.9666 12.1115C13.1682 12.0714 13.3772 12.092 13.5671 12.1706C13.757 12.2493 13.9193 12.3825 14.0335 12.5534C14.1477 12.7243 14.2086 12.9252 14.2086 13.1308C14.2086 13.4064 14.0991 13.6707 13.9042 13.8656C13.7093 14.0605 13.445 14.17 13.1694 14.17ZM16.3027 14.17C16.0971 14.17 15.8962 14.1091 15.7253 13.9949C15.5544 13.8807 15.4212 13.7184 15.3425 13.5285C15.2639 13.3386 15.2433 13.1296 15.2834 12.928C15.3235 12.7264 15.4225 12.5413 15.5678 12.3959C15.7132 12.2506 15.8983 12.1516 16.0999 12.1115C16.3015 12.0714 16.5105 12.092 16.7004 12.1706C16.8903 12.2493 17.0526 12.3825 17.1668 12.5534C17.281 12.7243 17.3419 12.9252 17.3419 13.1308C17.3419 13.4064 17.2324 13.6707 17.0375 13.8656C16.8426 14.0605 16.5783 14.17 16.3027 14.17Z" fill="white"/>
</svg>
