<svg width="166" height="40" viewBox="0 0 166 40" fill="none" xmlns="http://www.w3.org/2000/svg">
<g clip-path="url(#clip0_1_270)">
<path d="M50.6398 27.4517H62.3105V23.9395H54.7878V10.7103H50.6398V27.4517Z" fill="white"/>
<path d="M69.225 25.1103C67.5611 25.1103 66.694 23.6585 66.694 21.481C66.694 19.3034 67.5611 17.8283 69.225 17.8283C70.889 17.8283 71.7795 19.3034 71.7795 21.481C71.7795 23.6585 70.889 25.1103 69.225 25.1103ZM69.2485 27.8264C73.1153 27.8264 75.6463 25.0868 75.6463 21.481C75.6463 17.8751 73.1153 15.1356 69.2485 15.1356C65.4051 15.1356 62.8272 17.8751 62.8272 21.481C62.8272 25.0868 65.4051 27.8264 69.2485 27.8264Z" fill="white"/>
<path d="M82.3395 31.5961C84.1206 31.5961 85.6908 31.198 86.7453 30.2614C87.7062 29.3951 88.3389 28.0839 88.3389 26.281V15.4634H84.683V16.7512H84.6362C83.9331 15.7444 82.8551 15.1122 81.2615 15.1122C78.2852 15.1122 76.2229 17.5941 76.2229 21.1063C76.2229 24.7824 78.7305 26.7961 81.4255 26.7961C82.8785 26.7961 83.7925 26.2107 84.4956 25.4146H84.5893V26.6088C84.5893 28.0605 83.9097 28.9034 82.2926 28.9034C81.0271 28.9034 80.3944 28.3649 80.1835 27.7327H76.4807C76.8557 30.238 79.0351 31.5961 82.3395 31.5961ZM82.3161 23.9629C80.8865 23.9629 79.9491 22.7922 79.9491 20.9893C79.9491 19.1629 80.8865 17.9922 82.3161 17.9922C83.9097 17.9922 84.7533 19.3502 84.7533 20.9658C84.7533 22.6517 83.98 23.9629 82.3161 23.9629Z" fill="white"/>
<path d="M95.8562 25.1103C94.1922 25.1103 93.3251 23.6585 93.3251 21.481C93.3251 19.3034 94.1922 17.8283 95.8562 17.8283C97.5201 17.8283 98.4106 19.3034 98.4106 21.481C98.4106 23.6585 97.5201 25.1103 95.8562 25.1103ZM95.8796 27.8264C99.7464 27.8264 102.277 25.0868 102.277 21.481C102.277 17.8751 99.7464 15.1356 95.8796 15.1356C92.0362 15.1356 89.4583 17.8751 89.4583 21.481C89.4583 25.0868 92.0362 27.8264 95.8796 27.8264Z" fill="white"/>
<path d="M103.393 27.4517H107.212V15.4634H103.393V27.4517ZM103.393 13.801H107.212V10.7103H103.393V13.801Z" fill="white"/>
<path d="M108.871 31.4088H112.691V26.2107H112.737C113.487 27.2175 114.589 27.8263 116.136 27.8263C119.276 27.8263 121.362 25.3444 121.362 21.4575C121.362 17.8517 119.416 15.1122 116.229 15.1122C114.589 15.1122 113.417 15.838 112.597 16.9151H112.527V15.4634H108.871V31.4088ZM115.151 24.8761C113.511 24.8761 112.573 23.5415 112.573 21.598C112.573 19.6546 113.417 18.1795 115.081 18.1795C116.721 18.1795 117.495 19.5375 117.495 21.598C117.495 23.6351 116.604 24.8761 115.151 24.8761Z" fill="white"/>
<path d="M127.581 27.8263C130.721 27.8263 133.041 26.4683 133.041 23.8458C133.041 20.7785 130.557 20.24 128.448 19.8888C126.925 19.6078 125.565 19.4907 125.565 18.6478C125.565 17.8985 126.292 17.5473 127.229 17.5473C128.284 17.5473 129.01 17.8751 129.151 18.9522H132.666C132.479 16.5873 130.651 15.1122 127.253 15.1122C124.417 15.1122 122.073 16.4234 122.073 18.9522C122.073 21.7619 124.3 22.3239 126.386 22.6751C127.979 22.9561 129.432 23.0732 129.432 24.1502C129.432 24.9229 128.706 25.3444 127.557 25.3444C126.292 25.3444 125.495 24.759 125.354 23.5649H121.745C121.863 26.2107 124.065 27.8263 127.581 27.8263Z" fill="white"/>
<path d="M138.23 27.803C139.894 27.803 140.949 27.1473 141.816 25.9766H141.886V27.4517H145.542V15.4634H141.722V22.16C141.722 23.5883 140.925 24.5717 139.613 24.5717C138.394 24.5717 137.808 23.8459 137.808 22.5347V15.4634H134.012V23.3308C134.012 26 135.465 27.803 138.23 27.803Z" fill="white"/>
<path d="M147.203 27.4517H151.023V20.7317C151.023 19.3034 151.726 18.2966 152.921 18.2966C154.07 18.2966 154.609 19.0458 154.609 20.3336V27.4517H158.429V20.7317C158.429 19.3034 159.108 18.2966 160.327 18.2966C161.475 18.2966 162.014 19.0458 162.014 20.3336V27.4517H165.834V19.6546C165.834 16.9619 164.475 15.1122 161.756 15.1122C160.21 15.1122 158.921 15.7678 157.983 17.2195H157.936C157.327 15.9317 156.132 15.1122 154.562 15.1122C152.828 15.1122 151.679 15.9317 150.929 17.1727H150.859V15.4634H147.203V27.4517Z" fill="white"/>
<path fill-rule="evenodd" clip-rule="evenodd" d="M20.1973 39.159C30.9831 39.159 39.7268 30.4231 39.7268 19.6468C39.7268 8.87056 30.9831 0.134644 20.1973 0.134644C9.41151 0.134644 0.667908 8.87056 0.667908 19.6468C0.667908 30.4231 9.41151 39.159 20.1973 39.159ZM26.2898 9.22424C26.5864 8.17177 25.5641 7.5494 24.6305 8.21396L11.5977 17.4903C10.5852 18.211 10.7444 19.6468 11.8369 19.6468H15.2688V19.6203H21.9574L16.5075 21.5415L14.1048 30.0694C13.8083 31.1219 14.8305 31.7443 15.7642 31.0797L28.797 21.8034C29.8095 21.0827 29.6502 19.6468 28.5578 19.6468H23.3534L26.2898 9.22424Z" fill="white"/>
</g>
<defs>
<clipPath id="clip0_1_270">
<rect width="166" height="40" fill="white"/>
</clipPath>
</defs>
</svg>
