<svg width="166" height="40" viewBox="0 0 166 40" fill="none" xmlns="http://www.w3.org/2000/svg">
<g clip-path="url(#clip0_1_243)">
<path d="M50.071 28.608H61.7418V25.0958H54.219V11.8665H50.071V28.608Z" fill="white"/>
<path d="M68.6563 26.2666C66.9924 26.2666 66.1252 24.8149 66.1252 22.6373C66.1252 20.4597 66.9924 18.9846 68.6563 18.9846C70.3202 18.9846 71.2107 20.4597 71.2107 22.6373C71.2107 24.8149 70.3202 26.2666 68.6563 26.2666ZM68.6797 28.9827C72.5465 28.9827 75.0775 26.2431 75.0775 22.6373C75.0775 19.0314 72.5465 16.2919 68.6797 16.2919C64.8363 16.2919 62.2584 19.0314 62.2584 22.6373C62.2584 26.2431 64.8363 28.9827 68.6797 28.9827Z" fill="white"/>
<path d="M81.7706 32.7524C83.5517 32.7524 85.1219 32.3543 86.1764 31.4178C87.1373 30.5514 87.77 29.2402 87.77 27.4373V16.6197H84.1141V17.9075H84.0673C83.3642 16.9007 82.2862 16.2685 80.6926 16.2685C77.7163 16.2685 75.654 18.7504 75.654 22.2626C75.654 25.9387 78.1616 27.9524 80.8566 27.9524C82.3096 27.9524 83.2236 27.367 83.9267 26.5709H84.0204V27.7651C84.0204 29.2168 83.3408 30.0597 81.7237 30.0597C80.4582 30.0597 79.8255 29.5212 79.6146 28.889H75.9118C76.2867 31.3943 78.4662 32.7524 81.7706 32.7524ZM81.7472 25.1192C80.3176 25.1192 79.3802 23.9485 79.3802 22.1456C79.3802 20.3192 80.3176 19.1485 81.7472 19.1485C83.3408 19.1485 84.1844 20.5065 84.1844 22.1222C84.1844 23.808 83.4111 25.1192 81.7472 25.1192Z" fill="white"/>
<path d="M95.2873 26.2666C93.6234 26.2666 92.7563 24.8149 92.7563 22.6373C92.7563 20.4597 93.6234 18.9846 95.2873 18.9846C96.9512 18.9846 97.8414 20.4597 97.8414 22.6373C97.8414 24.8149 96.9512 26.2666 95.2873 26.2666ZM95.3107 28.9827C99.1772 28.9827 101.708 26.2431 101.708 22.6373C101.708 19.0314 99.1772 16.2919 95.3107 16.2919C91.4673 16.2919 88.8895 19.0314 88.8895 22.6373C88.8895 26.2431 91.4673 28.9827 95.3107 28.9827Z" fill="white"/>
<path d="M102.824 28.608H106.644V16.6197H102.824V28.608ZM102.824 14.9572H106.644V11.8665H102.824V14.9572Z" fill="white"/>
<path d="M108.301 32.5651H112.121V27.367H112.168C112.918 28.3739 114.02 28.9826 115.566 28.9826C118.707 28.9826 120.792 26.5007 120.792 22.6139C120.792 19.008 118.847 16.2685 115.66 16.2685C114.02 16.2685 112.848 16.9943 112.028 18.0714H111.957V16.6197H108.301V32.5651ZM114.582 26.0324C112.942 26.0324 112.004 24.6978 112.004 22.7543C112.004 20.8109 112.848 19.3358 114.512 19.3358C116.152 19.3358 116.926 20.6939 116.926 22.7543C116.926 24.7914 116.035 26.0324 114.582 26.0324Z" fill="white"/>
<path d="M127.011 28.9826C130.152 28.9826 132.472 27.6246 132.472 25.0022C132.472 21.9348 129.988 21.3963 127.879 21.0451C126.355 20.7641 124.996 20.647 124.996 19.8041C124.996 19.0548 125.723 18.7036 126.66 18.7036C127.715 18.7036 128.441 19.0314 128.582 20.1085H132.097C131.909 17.7436 130.081 16.2685 126.683 16.2685C123.848 16.2685 121.504 17.5797 121.504 20.1085C121.504 22.9183 123.731 23.4802 125.816 23.8314C127.41 24.1124 128.863 24.2295 128.863 25.3065C128.863 26.0792 128.136 26.5007 126.988 26.5007C125.723 26.5007 124.926 25.9153 124.785 24.7212H121.176C121.293 27.367 123.496 28.9826 127.011 28.9826Z" fill="white"/>
<path d="M137.661 28.9592C139.325 28.9592 140.379 28.3036 141.246 27.1329H141.317V28.608H144.973V16.6197H141.153V23.3163C141.153 24.7446 140.356 25.728 139.044 25.728C137.825 25.728 137.239 25.0021 137.239 23.6909V16.6197H133.443V24.487C133.443 27.1563 134.895 28.9592 137.661 28.9592Z" fill="white"/>
<path d="M146.635 28.608H150.455V21.888C150.455 20.4597 151.158 19.4529 152.353 19.4529C153.501 19.4529 154.04 20.2022 154.04 21.49V28.608H157.86V21.888C157.86 20.4597 158.54 19.4529 159.758 19.4529C160.907 19.4529 161.446 20.2022 161.446 21.49V28.608H165.266V20.8109C165.266 18.1182 163.906 16.2685 161.188 16.2685C159.641 16.2685 158.352 16.9241 157.415 18.3758H157.368C156.759 17.088 155.563 16.2685 153.993 16.2685C152.259 16.2685 151.111 17.088 150.361 18.329H150.291V16.6197H146.635V28.608Z" fill="white"/>
<path fill-rule="evenodd" clip-rule="evenodd" d="M19.6283 39.3397C30.4142 39.3397 39.1578 30.6038 39.1578 19.8275C39.1578 9.05127 30.4142 0.315369 19.6283 0.315369C8.84257 0.315369 0.0989685 9.05127 0.0989685 19.8275C0.0989685 30.6038 8.84257 39.3397 19.6283 39.3397ZM22.6427 15.391C24.3074 13.7277 24.3074 11.031 22.6427 9.36772C20.9779 7.70442 18.2789 7.70442 16.6141 9.36772C14.9494 11.031 14.9494 13.7277 16.6141 15.391L19.6283 18.4026L22.6427 15.391ZM24.0688 22.8392C25.7336 24.5025 28.4327 24.5025 30.0975 22.8392C31.7622 21.1759 31.7622 18.4792 30.0975 16.8159C28.4327 15.1527 25.7336 15.1527 24.0688 16.8159L21.0546 19.8276L24.0688 22.8392ZM22.6427 30.2874C24.3074 28.6241 24.3074 25.9274 22.6427 24.2641L19.6283 21.2525L16.6141 24.2641C14.9494 25.9274 14.9494 28.6241 16.6141 30.2874C18.2789 31.9507 20.9779 31.9507 22.6427 30.2874ZM9.15928 22.8392C7.49455 21.1759 7.49455 18.4792 9.15928 16.8159C10.8241 15.1527 13.5232 15.1527 15.1879 16.8159L18.2022 19.8276L15.1879 22.8392C13.5232 24.5025 10.8241 24.5025 9.15928 22.8392Z" fill="white"/>
</g>
<defs>
<clipPath id="clip0_1_243">
<rect width="166" height="40" fill="white"/>
</clipPath>
</defs>
</svg>
