<svg width="14" height="14" viewBox="0 0 14 14" fill="none" xmlns="http://www.w3.org/2000/svg">
<path d="M11.5 3H7.5V1C7.5 0.867392 7.44732 0.740215 7.35355 0.646447C7.25979 0.552678 7.13261 0.5 7 0.5C6.86739 0.5 6.74021 0.552678 6.64645 0.646447C6.55268 0.740215 6.5 0.867392 6.5 1V3H2.5C1.96957 3 1.46086 3.21071 1.08579 3.58579C0.710714 3.96086 0.5 4.46957 0.5 5V12C0.5 12.5304 0.710714 13.0391 1.08579 13.4142C1.46086 13.7893 1.96957 14 2.5 14H11.5C12.0304 14 12.5391 13.7893 12.9142 13.4142C13.2893 13.0391 13.5 12.5304 13.5 12V5C13.5 4.46957 13.2893 3.96086 12.9142 3.58579C12.5391 3.21071 12.0304 3 11.5 3ZM12.5 12C12.5 12.2652 12.3946 12.5196 12.2071 12.7071C12.0196 12.8946 11.7652 13 11.5 13H2.5C2.23478 13 1.98043 12.8946 1.79289 12.7071C1.60536 12.5196 1.5 12.2652 1.5 12V5C1.5 4.73478 1.60536 4.48043 1.79289 4.29289C1.98043 4.10536 2.23478 4 2.5 4H11.5C11.7652 4 12.0196 4.10536 12.2071 4.29289C12.3946 4.48043 12.5 4.73478 12.5 5V12ZM9.25 8.5H4.75C4.28587 8.5 3.84075 8.68437 3.51256 9.01256C3.18437 9.34075 3 9.78587 3 10.25C3 10.7141 3.18437 11.1592 3.51256 11.4874C3.84075 11.8156 4.28587 12 4.75 12H9.25C9.71413 12 10.1592 11.8156 10.4874 11.4874C10.8156 11.1592 11 10.7141 11 10.25C11 9.78587 10.8156 9.34075 10.4874 9.01256C10.1592 8.68437 9.71413 8.5 9.25 8.5ZM7.75 9.5V11H6.25V9.5H7.75ZM4 10.25C4 10.0511 4.07902 9.86032 4.21967 9.71967C4.36032 9.57902 4.55109 9.5 4.75 9.5H5.25V11H4.75C4.55109 11 4.36032 10.921 4.21967 10.7803C4.07902 10.6397 4 10.4489 4 10.25ZM9.25 11H8.75V9.5H9.25C9.44891 9.5 9.63968 9.57902 9.78033 9.71967C9.92098 9.86032 10 10.0511 10 10.25C10 10.4489 9.92098 10.6397 9.78033 10.7803C9.63968 10.921 9.44891 11 9.25 11ZM3.5 6.75C3.5 6.60166 3.54399 6.45666 3.6264 6.33332C3.70881 6.20999 3.82594 6.11386 3.96299 6.05709C4.10003 6.00032 4.25083 5.98547 4.39632 6.01441C4.5418 6.04335 4.67544 6.11478 4.78033 6.21967C4.88522 6.32456 4.95665 6.4582 4.98559 6.60368C5.01453 6.74917 4.99968 6.89997 4.94291 7.03701C4.88614 7.17406 4.79001 7.29119 4.66668 7.3736C4.54334 7.45601 4.39834 7.5 4.25 7.5C4.05109 7.5 3.86032 7.42098 3.71967 7.28033C3.57902 7.13968 3.5 6.94891 3.5 6.75ZM9 6.75C9 6.60166 9.04399 6.45666 9.1264 6.33332C9.20881 6.20999 9.32594 6.11386 9.46299 6.05709C9.60003 6.00032 9.75083 5.98547 9.89632 6.01441C10.0418 6.04335 10.1754 6.11478 10.2803 6.21967C10.3852 6.32456 10.4566 6.4582 10.4856 6.60368C10.5145 6.74917 10.4997 6.89997 10.4429 7.03701C10.3861 7.17406 10.29 7.29119 10.1667 7.3736C10.0433 7.45601 9.89834 7.5 9.75 7.5C9.55109 7.5 9.36032 7.42098 9.21967 7.28033C9.07902 7.13968 9 6.94891 9 6.75Z" fill="#153140"/>
</svg>
